<?xml version="1.0" encoding="utf-8"?>
<!-- Generator: Adobe Illustrator 18.1.1, SVG Export Plug-In . SVG Version: 6.00 Build 0)  -->
<svg version="1.1" id="Ebene_1" xmlns="http://www.w3.org/2000/svg" xmlns:xlink="http://www.w3.org/1999/xlink" x="0px" y="0px"
	 viewBox="0 0 500 114" enable-background="new 0 0 500 114" xml:space="preserve">
<g>
	<path fill="#006F98" d="M290,44.6h-19.7v2.1c6.2,0,7.1,1.3,7.1,9.1v14.1c0,7.8-1,9.2-7.1,9.2c-4.7-0.7-7.9-3.2-12.3-8l-5.1-5.5
		c6.8-1.2,10.4-5.5,10.4-10.3c0-6-5.2-10.7-14.8-10.7h-19.4v2.1c6.2,0,7.1,1.3,7.1,9.1v14.1c0,7.8-1,9.2-7.1,9.2v2.1H251v-2.1
		c-6.2,0-7.1-1.4-7.1-9.2v-4h1.9L258,81.2h32c15.7,0,22.5-8.4,22.5-18.4C312.5,52.8,305.7,44.6,290,44.6z M243.9,62.5V47.9h4.5
		c4.9,0,7.1,3.4,7.1,7.4c0,3.8-2.2,7.3-7.1,7.3H243.9z M290.3,77.8h-0.8c-4,0-4.5-1-4.5-6V47.9c0,0,4.8,0,5.3,0
		c11.4,0,13.5,8.4,13.5,14.8C303.8,69.4,301.7,77.8,290.3,77.8z"/>
	<path fill="#4D4744" d="M8.1,56.7c0,19.2,11.2,35.9,27.4,43.7L12.3,36.9C9.6,42.9,8.1,49.6,8.1,56.7z M89.5,54.2
		c0-6-2.2-10.2-4-13.4c-2.5-4-4.8-7.4-4.8-11.4c0-4.5,3.4-8.6,8.2-8.6c0.2,0,0.4,0,0.6,0C80.8,12.9,69.3,8.1,56.7,8.1
		c-17,0-31.9,8.7-40.6,21.9c1.1,0,2.2,0.1,3.1,0.1c5.1,0,13-0.6,13-0.6c2.6-0.2,2.9,3.7,0.3,4c0,0-2.6,0.3-5.6,0.5l17.7,52.7
		l10.6-31.9l-7.6-20.7c-2.6-0.2-5.1-0.5-5.1-0.5c-2.6-0.2-2.3-4.2,0.3-4c0,0,8,0.6,12.8,0.6c5.1,0,13-0.6,13-0.6
		c2.6-0.2,2.9,3.7,0.3,4c0,0-2.6,0.3-5.6,0.5l17.6,52.3l4.9-16.2C88.2,63.6,89.5,58.4,89.5,54.2z M57.5,60.9l-14.6,42.4
		c4.4,1.3,9,2,13.7,2c5.7,0,11.1-1,16.1-2.8c-0.1-0.2-0.3-0.4-0.4-0.7L57.5,60.9z M99.3,33.3c0.2,1.5,0.3,3.2,0.3,5
		c0,4.9-0.9,10.5-3.7,17.4L81.1,98.7c14.5-8.4,24.2-24.1,24.2-42C105.3,48.2,103.1,40.3,99.3,33.3z"/>
	<path fill="#4D4744" d="M0,56.7c0,31.2,25.4,56.7,56.7,56.7c31.2,0,56.7-25.4,56.7-56.7S87.9,0,56.7,0C25.4,0,0,25.4,0,56.7z
		 M2.6,56.7c0-29.8,24.3-54.1,54.1-54.1c29.8,0,54.1,24.3,54.1,54.1s-24.3,54.1-54.1,54.1C26.9,110.7,2.6,86.5,2.6,56.7z"/>
	<path fill="#006F98" d="M167.9,66.6l7.6-22.4c2.2-6.5,1.2-8.4-5.8-8.4v-2.2h20.7v2.2c-6.9,0-8.6,1.7-11.3,9.7l-12.5,37.6H165
		l-11.2-34.4l-11.4,34.4H141l-12.2-37.6c-2.6-8-4.4-9.7-10.8-9.7v-2.2h24.4v2.2c-6.5,0-8.2,1.5-5.9,8.4l7.4,22.4l11.1-33h2.1
		L167.9,66.6z"/>
	<path fill="#006F98" d="M205.3,82.6c-12.1,0-22-8.9-22-19.8c0-10.8,9.9-19.7,22-19.7s22,8.9,22,19.7
		C227.3,73.7,217.4,82.6,205.3,82.6z M205.3,46.6c-10.1,0-13.6,9.1-13.6,16.3c0,7.3,3.5,16.3,13.6,16.3c10.2,0,13.7-9,13.7-16.3
		C219,55.7,215.5,46.6,205.3,46.6z"/>
	<path fill="#4D4744" d="M339.7,79v2.2h-25.2V79c7.4,0,8.7-1.9,8.7-12.9V48.6c0-11-1.3-12.8-8.7-12.8v-2.2h22.8
		c11.3,0,17.6,5.8,17.6,13.6c0,7.6-6.3,13.5-17.6,13.5H331v5.4C331,77.1,332.3,79,339.7,79z M337.2,37.6H331v19.1h6.3
		c6.2,0,9-4.3,9-9.5C346.3,42,343.4,37.6,337.2,37.6z"/>
	<path fill="#4D4744" d="M430.4,70.9l-0.5,2c-1,3.6-2.2,4.9-10,4.9h-1.5c-5.7,0-6.7-1.3-6.7-9.1v-5.1c8.6,0,9.2,0.8,9.2,6.5h2.1
		V53.7h-2.1c0,5.7-0.7,6.5-9.2,6.5V47.9h6.1c7.8,0,9,1.3,10,4.9l0.5,2.1h1.8l-0.8-10.3h-32.3v2.1c6.2,0,7.1,1.3,7.1,9.1v14.1
		c0,7.1-0.8,8.9-5.7,9.2c-4.6-0.7-7.8-3.2-12.1-8l-5.1-5.5c6.8-1.2,10.4-5.5,10.4-10.3c0-6-5.2-10.7-14.8-10.7h-19.4v2.1
		c6.2,0,7.1,1.3,7.1,9.1v14.1c0,7.8-1,9.2-7.1,9.2v2.1h21.9v-2.1c-6.2,0-7.1-1.4-7.1-9.2v-4h1.9l12.2,15.3h45.2l0.7-10.3H430.4z
		 M372.1,62.5V47.9h4.5c4.9,0,7.2,3.4,7.2,7.4c0,3.8-2.2,7.3-7.2,7.3H372.1z"/>
	<path fill="#4D4744" d="M452.7,82.6c-4.4,0-8.2-2.3-9.9-3.7c-0.5,0.6-1.5,2.2-1.8,3.7H439V67.5h2.2c0.9,7.3,5.9,11.5,12.4,11.5
		c3.5,0,6.4-2,6.4-5.3c0-2.9-2.5-5.1-7-7.1l-6.3-3c-4.4-2.1-7.7-5.7-7.7-10.6c0-5.3,4.9-9.8,11.8-9.8c3.6,0,6.7,1.3,8.6,2.9
		c0.5-0.4,1.1-1.7,1.4-3h2.1v13h-2.3c-0.8-5.2-3.6-9.5-9.5-9.5c-3.1,0-5.9,1.8-5.9,4.5c0,2.9,2.3,4.4,7.6,6.8l6,3
		c5.3,2.5,7.4,6.6,7.4,9.9C466.1,77.8,460.1,82.6,452.7,82.6z"/>
	<path fill="#4D4744" d="M486.6,82.6c-4.4,0-8.2-2.3-9.9-3.7c-0.5,0.6-1.5,2.2-1.8,3.7h-2.1V67.5h2.2c0.9,7.3,5.9,11.5,12.4,11.5
		c3.5,0,6.4-2,6.4-5.3c0-2.9-2.5-5.1-7-7.1l-6.3-3c-4.4-2.1-7.7-5.7-7.7-10.6c0-5.3,4.9-9.8,11.8-9.8c3.6,0,6.7,1.3,8.6,2.9
		c0.5-0.4,1.1-1.7,1.4-3h2.1v13h-2.3c-0.8-5.2-3.6-9.5-9.5-9.5c-3.1,0-5.9,1.8-5.9,4.5c0,2.9,2.3,4.4,7.6,6.8l6,3
		c5.3,2.5,7.4,6.6,7.4,9.9C500,77.8,494,82.6,486.6,82.6z"/>
</g>
</svg>
